<svg width="20" height="20" viewBox="0 0 20 20" fill="none" xmlns="http://www.w3.org/2000/svg">
<g clip-path="url(#clip0_4037_24)">
<mask id="mask0_4037_24" style="mask-type:luminance" maskUnits="userSpaceOnUse" x="0" y="0" width="20" height="20">
<path d="M20 0H0V20H20V0Z" fill="white"/>
</mask>
<g mask="url(#mask0_4037_24)">
<mask id="mask1_4037_24" style="mask-type:luminance" maskUnits="userSpaceOnUse" x="0" y="0" width="20" height="20">
<path d="M20 0H0V20H20V0Z" fill="white"/>
</mask>
<g mask="url(#mask1_4037_24)">
<path d="M15.8356 14.1648C14.4605 14.1648 13.3418 15.2835 13.3418 16.6585C13.3418 18.0336 14.4605 19.1523 15.8356 19.1523C17.2106 19.1523 18.3293 18.0336 18.3293 16.6585C18.3293 15.2835 17.2106 14.1648 15.8356 14.1648ZM15.8356 17.656C15.2854 17.656 14.8381 17.2087 14.8381 16.6585C14.8381 16.1084 15.2854 15.661 15.8356 15.661C16.3857 15.661 16.8331 16.1084 16.8331 16.6585C16.8331 17.2087 16.3857 17.656 15.8356 17.656Z" fill="#FED049"/>
<path d="M19.841 4.52644C19.6994 4.34515 19.4821 4.2394 19.252 4.2394H4.618L3.94467 1.4222C3.86412 1.08556 3.56311 0.8479 3.21697 0.8479H0.748129C0.334924 0.847861 0 1.18279 0 1.59599C0 2.0092 0.334924 2.34412 0.748129 2.34412H2.62646L5.05788 12.5177C5.13843 12.8546 5.43945 13.092 5.78558 13.092H17.4315C17.7755 13.092 18.0752 12.8576 18.1577 12.5239L19.9782 5.1673C20.0333 4.9439 19.9827 4.70773 19.841 4.52644ZM16.8462 11.5958H6.37609L4.97558 5.73566H18.2961L16.8462 11.5958Z" fill="#FED049"/>
<path d="M6.78331 14.1648C5.40822 14.1648 4.28955 15.2835 4.28955 16.6585C4.28955 18.0336 5.40826 19.1523 6.78331 19.1523C8.15836 19.1523 9.27708 18.0336 9.27708 16.6585C9.27708 15.2835 8.15836 14.1648 6.78331 14.1648ZM6.78331 17.656C6.23319 17.656 5.78581 17.2087 5.78581 16.6585C5.78581 16.1084 6.23319 15.661 6.78331 15.661C7.33343 15.661 7.78082 16.1084 7.78082 16.6585C7.78082 17.2087 7.33343 17.656 6.78331 17.656Z" fill="#FED049"/>
</g>
</g>
</g>
<defs>
<clipPath id="clip0_4037_24">
<rect width="20" height="20" fill="white"/>
</clipPath>
</defs>
</svg>
